<?xml version="1.0" encoding="UTF-8"?><svg xmlns="http://www.w3.org/2000/svg" viewBox="0 0 1811.99 1343.94"><defs><style>.p{fill:#dad9d8;}.q{fill:#ea2626;}.r{fill:#0c0d0d;}.s{fill:#f0efef;}.t{fill:#e6e5e5;}.u{fill:#a4a4a4;}.v{fill:#6f6f6f;}.w{fill:#3b3b3b;}.x{fill:#0d0e0e;}.y{fill:#fefefe;}</style></defs><g id="a"/><g id="b"><path class="u" d="M734.83,124.12c108.08,0,165.61,23.77,273.69,23.77-.08,14.94,5.72,28.42,10.53,42.14,.45,1.28,1.3,2.49,2.87,2.79-.68,1.97-1.37,3.93-2.03,5.9-2.92,8.81,.17,12.75,9.43,12.03,4.26,1.64,5.83,5.79,8.39,9.03,9.26,11.72,17.82,23.97,26.73,35.93,13.69,18.38,22.98,38.91,22.63,62.68-.29,19.6-4.21,38.85-6.34,58.24-2.56,23.34-2.47,46.04,3.35,68.66,6.59,25.64,17.4,49.68,28.67,73.52-42.86,28.55-89.81,49.66-135.22,73.51-30.51,16.03-63.52,26.9-94.91,41.28-12.62,5.78-24.78,13.54-38.98,14.97-28.12,2.83-56.3,5.04-84.45,7.53-5.61,.5-11.23,1.04-16.45-1.79-12.76-6.92-26.44-11.69-40.01-16.62-33.8-12.29-67.3-25.15-97.5-45.24-38.12-25.35-72.79-54.72-103.65-88.55-3.9-4.27-7.16-9.08-9.59-14.25,.61-.91,.89-1.61,1.4-2.05,5.46-4.76,11.05-9.37,16.42-14.23,7.17-6.48,7.87-12.47,2.2-20.31-2.3-3.19-5.16-6.02-8.04-8.73-5.09-4.8-10.34-9.42-14.8-15.37,2.06-1.33,3.99-2.61,5.95-3.83,16.06-10.01,31.65-20.72,47.15-31.57,4.98-3.49,8.27-7.64,7.22-14.01-3.22-19.49-.23-38.72,2.75-57.86,10.77-69.23,44.27-123.42,105.99-158.63,7.69-4.39,16.44-15.3,24.29-19.42,1.16-.61,53.2-17.07,52.32-19.52Zm194.86,436.91c46.91,.75,74.83-17.59,93.82-48.85,25.77-42.42,28.05-86.98,7.51-132.65-10.17-22.62-22.17-42.89-48.45-49.48-.44-.11-.83-.43-1.22-.69-27.9-18.81-59.32-19.5-90.52-14.64-38.55,6.01-70.43,27.56-101.34,49.99-10.38,7.53-18.99,17.32-29.77,24.46-7.19,4.76-14.55,5.87-22.57,2.6-19.17-7.82-37.14-17.56-52.14-32.15-4.2-4.08-8.79-7.7-13.89-10.61-21.59-12.33-44.78-13.54-68.63-9.73-17.13,2.74-29.13,12.36-37.66,27.35-14.36,25.24-17.49,52.54-18.07,80.99-.81,39.38,32.72,102.06,76.96,117.3,11.75,4.05,21.82,3.48,31.89-3.04,6.29-4.08,11.89-9.04,17.37-14.16,15.72-14.67,31.28-29.53,49.89-40.7,21.92-13.14,43.56-14.39,66.01-.75,25.15,15.29,51.95,27.29,79.24,38.41,22.73,9.26,45.58,16.63,61.58,16.34Zm-153.61,24.9c-7.56-.54-15.52,.26-23.33,1.51-10.98,1.75-22.36,2.68-31.79,9.64-8.08,5.96-9.64,15.69-2.65,21.66,7.03,6.01,14.44,11.93,23.84,14.19,22.68,5.45,43.5,.18,63.09-11.31,6.63-3.89,11.11-9.85,10.16-17.84-.99-8.33-7.09-12.73-14.65-15.27-7.89-2.66-16.04-2.87-24.66-2.57Z"/><path class="s" d="M1107.8,644.57c-11.41,5.22-22.6,11.04-34.28,15.57-59.1,22.92-120.5,37.1-183.05,46.3-44.75,6.59-89.49,13.46-134.56,17.64-30.53,2.84-61.13,3.36-91.73,1.44-15.3-.96-30.55-2.7-46.08-4.11-.45,1.17-.93,2.2-1.24,3.27-5.25,17.86-6.12,36.29-6.91,54.7-1.34,31.22-16.03,56.66-34.32,82.65,1.68,26.76-24.58,30.18-33.92,55.68-3.74,10.21-7.59,12.38-8.41,11.2-3.25-4.7,1.97,9.01-2.48,6.4-9.23,5.17-2.82,16.04-15.58,14.72-9.72,8.43-20.73,26.09-30.25,34.58,.99-.57-57.68,41.58-141.48,47.16,0,0-20.39,131.56,21.22,132.66,59.84,1.58,206.75-20.86,259.35-39.73,30.72-11.02,24.28,19.7,30.2,24.64,.79,.66,109.56-33.94,109.17-32.91l250.45-111.75c-5.85-3.2-23.57-8.57-37.97-12.63-21.49-6.05-37.87-33.12-28.88-77.35,2.51-12.36,13.73-20.94,21.2-31.02,2.9-3.92,5.69-7.98,8.99-11.56,3.38-3.68,6.27-7.94,12.02-9.01,2.69-.5,5.4-2.93,7.31-5.16,6.69-7.77,15.22-12.85,23.95-17.88,18.17-10.46,31.84-24.57,37.6-45.58,3.53-12.88,11.54-23.88,17.34-35.82,2.39-4.92,4.26-9.72,5.14-15.04,2.38-14.33,7.98-27.7,12.32-41.46,5.39-17.08,10.51-34.25,15.8-51.37,.71-2.31,1.57-4.5-.93-6.27Zm-92.13,171.33c-8.64,6.25-18.32,10.19-29.25,8.44-10.2,1.01-19.54-1.92-28.83-5.08-16.51-5.61-23.05-18.79-25.21-34.6-1.26-9.26,.02-18.72,2.21-27.81,3.13-12.99,12.67-21.78,23.62-27.23,12.98-6.46,27.11-10.5,42.37-5.2,16.93,5.88,33.88,27.52,34.52,45.35,.66,18.46-3.76,34.78-19.42,46.11Z"/><path class="s" d="M534.35,1177.24c160-16.47,502.97-188.75,504.12-189.04,17.83-4.42,31.84-14.83,44.81-27.38,16.85-16.3,32.47-33.57,46.33-52.49,16.04-21.89,35.05-41.35,51.79-62.69,34.17-43.55,55.75-92.78,67.24-146.73,4.03-18.9,8.88-37.61,13.3-56.43,.52-2.22,.67-4.53,1.15-7.88-6.14,1.9-11.51,3.56-17.32,5.35-3.78,15.59-7.84,31.1-11.26,46.74-8.14,37.25-19.34,73.36-38.15,106.79-14.86,26.42-33.81,49.79-53.59,72.57-7.5,8.64-14.82,17.43-22.78,26.8-23.9-11-52.17-6.21-76.85-19.27,7.69-11.69,14.45-22.74,21.97-33.25,24.38-34.06,43.64-70.99,61-108.93,7.55-16.5,11.39-34.36,15.71-51.97,5.13-20.93,10.25-41.86,15.41-62.78,1.59-6.45,4.48-11.69,10.24-15.9,8.07-5.91,15.2-13.11,22.72-19.77,2.72-2.41,4.02-5.67,5.18-8.99,11.73-33.53,21.07-67.61,23.86-103.21,.16-2.08,.66-4.13,1.09-6.75,5.67-2.37,11.4-4.77,17.47-7.31,6.41,6.2,10.89,13.53,14.93,21.08,15.65,29.27,26.79,60.42,37.08,91.84,19.72,60.18,38.7,120.6,52.02,182.6,8.47,39.42,15.49,79.11,20.64,119.14,3.54,27.56,7.44,55.03,8.82,82.83,.63,12.68-.85,25.22-.62,37.83-4.26,198.33-242.71,354.21-779.4,341.84-75.16-1.73-56.14-139.76-56.9-154.67Zm697.22-515.1c-24.39-2.76-47.35-9.56-72.18-9.12-5.62,15.07-9.25,30.5-13.75,45.36,1.48,1.01,2,1.54,2.62,1.77,22.38,8.52,45.95,9.37,69.43,10.67,3.18,.18,4.92-1.84,5.78-4.99,1.4-5.15,3.66-10.1,4.71-15.31,1.81-9.03,4.53-18.02,3.39-28.38Z"/><path class="t" d="M845.39,14.36c318.08,10.88,339.07,205.97,346.58,246.29,4.47,23.99,6.76,48.39,8.96,72.77,2.98,33.1,4.49,66.21,4.06,99.41-.58,45.2-9.4,88.92-24.42,131.48-1.93,5.47-5.96,8.91-9.98,12.33-13.7,11.66-27.24,23.58-41.56,34.44-28.97,21.96-62.23,35.53-96.6,46.11-53.53,16.48-108.06,28.6-163.72,35.59-37.73,4.74-75.25,11.26-113.15,14.66-37.32,3.36-74.62,3.16-112.02-.21-34.99-3.16-68.84-12.03-103.25-18.05-2.98-.52-5.99-.86-9.33-1.34-2.89-9.57-2.05-19.63-3.26-30.47,17.31,6.66,35.07,8.5,52.69,10.61,49.7,5.94,99.48,9.79,149.65,6.86,37.57-2.19,75.07-5.07,112.44-9.2,75.04-8.31,148.66-23.26,219.44-50.26,19.33-7.38,36.79-18.27,52.74-31.31,16.01-13.08,22.61-31.55,26.92-51,5.4-24.41,3.65-48.03-10.4-69.3-20.44-30.94-18.07-62.7-6.02-95.67,7.67-20.99,13.89-42.43,15.63-65.01,2.19-28.44-6.23-53.09-25.29-73.94-17.02-18.62-34.87-36.48-52-55-6.87-7.43-124.05-119.46-450.53-51.14,45.79-30.56,199.65-108.64,232.4-108.64Z"/><path class="t" d="M484.96,147.9c8.88,46.17,24.88,88.69,61.88,122.02-10.8,34.72-17.06,71.49-14.83,110.31-19.21,12.62-37.84,27.45-59.37,37.8-6.09,2.93-7.39,9.25-2.44,15.13,6.17,7.32,12.29,14.72,19.55,21.05,2.63,2.29,5.11,4.77,7.79,7.29-6.46,6.17-13.7,10.99-19.41,17.57-5.02,5.79-5.34,11.64-1.66,17.93,4.72,8.07,9.84,15.81,16.62,22.44,21.87,21.39,42.05,44.6,67.8,61.75,6.58,4.38,12.71,9.42,19.29,14.33-7.11,17.23-15.41,33.75-16.99,52.89-22.02-2.28-40.87-8.43-53.92-27.81-42.16-62.64-68.65-131.49-83.33-205.23-6.6-33.19-8.86-66.67-6.76-100.41,1.55-24.81,7.5-48.76,15.1-72.37,10.52-32.67,23.86-64.13,39.43-94.68h11.23Z"/><path class="w" d="M1488.27,833.24c-10.76,3.91-25.59,5.08-37.47,3.62-.19-.07-.74-.12-1.04-.43-12.72-13.11-27.47-13.75-43.74-7.77-9.59,3.53-19.76,5.06-29.96,6.77-5.06-12.46-1.8-24.62,.66-36.49,3.77-18.19,9.63-35.9,11.58-54.54,1.99-18.94,5.09-37.76,7.6-56.65,1.8-13.5,3.43-27.03,5.27-41.62,5.85,4.95,8.06,11.1,11.32,16.46,4,6.57,7.6,13.4,11.52,20.02,3.09,5.22,7.24,8.65,15.6,6.16,9.42-7.37,11.79-28.79,26.67-33.88,6.02,3.2,9.34,13.91,11.95,19.41,2.26,4.78-.2,11.2,6.11,12.58,0,9.1,70.6,15.39,70.6,24.5s19.82,33.22,19.82,42.71c0,14.72-32.42,56.75-32.42,71.47,0,7.68-12.48,8.38-12.48,16.06,0,7.19-41.6-15.58-41.6-8.38Z"/><path class="w" d="M1482.67,548.51c-11.93-5.56-22.27-11.11-34.26-6.49-13.26,5.11-24.28,1.75-33.84-8.32-3.69-3.89-7.87-7.32-11.67-10.81-1.44-19.8-2.41-38.86-4.3-57.82-2.56-25.65-4.67-51.41-10.84-76.54-1.24-5.06-.95-9.51,1.49-14.07,4.29-7.99,7.73-16.44,14.46-25.54-.12,14.47,7.87,23.01,16.79,30.24,15.75,12.77,33.54,21.88,53.69,25.83,3.42,.67,83.43-5.24,86.82-4.37,0,11.65,72.95,11.23,81.97,63.83,4.21,24.54,58.7,47.04,91.68,47.04,10.56,0-59.92,83.7-96,124.66-5.16,5.86-38.44-22.13-52.91-55.47-10.47-24.14-15.45,13.22-37.33,8.09-23.75-5.56-65.76-46.12-65.76-40.26Z"/><path class="u" d="M1381.18,983.86c2.95-45.09,2.41-86.07-4.29-131.16,17.75-1.88,34.03-8.83,52.28-11.06,14.26,18.09,32.6,13.82,51.13,8.53,1.29-.37-.1-4.93,1.25-5.07,13.84-6.66,40.96-4.7,40.96,7.36,0,15.08-29.41,58.7-29.41,73.78-1.9-1.54-10.98,5.3-11.55,6.27-2.23,3.8,.07,9.96-2.24,13.71-9.47,15.39-71.13,92.11-80.66,107.47-17.78,0-23.8,24.37-41.58,24.37-1.38-1.97,19.34-95.53,24.11-94.19Z"/><path class="p" d="M936.7,993.99c-7.04-14.08,.99-55.83,10.03-80.43,4.35-11.84,14.08-19.78,21.54-29.86,2.9-3.92,5.69-7.98,8.99-11.56,3.38-3.68,6.83-6.33,12.02-9.01,3.23-1.66,7.39-5.12,9.31-7.35,6.69-7.77,13.22-10.66,21.95-15.69,18.17-10.46,31.84-24.57,37.6-45.58,3.53-12.88,11.54-23.88,17.34-35.82,2.39-4.92,4.26-9.72,5.14-15.04,2.38-14.33,7.98-27.7,12.32-41.46,5.39-17.08,10.51-34.25,15.8-51.37,.71-2.31,1.57-4.5-.93-6.27,11.42-4.34,20.61-12.32,31.55-19.73-3.8,20.14-8.02,39.07-14.33,57.45-20.66,60.23-47.53,117.25-87.31,167.53-5.81,7.34-12.21,13.7-20.74,18.23-14.3,7.59-26.75,17.84-37.93,29.6-24.9,26.2,37.65,91.64,36.27,101.03-3.2,11.84-35.95,11.56-39.57,8.11-6.69-6.37-32.73-.85-39.04-12.8Z"/><path class="u" d="M1501.83,701.2c-.57-.3-18.83-48.44-19.16-48.9-10.26-14.23-21.73-12.28-34.16-2.48-5.6,4.42-9.91,9.81-14.32,16.94-9.1-16.97-17.76-33.38-31.35-46.87,1.76-23.66,1.82-47.41,.77-71.11,2.66-1.06,3.62,1.14,4.84,2.16,12.22,10.34,26.12,13.73,41.12,8.28,12.08-4.38,30.18-5.01,41.58,.41,14.16,4.84,54.16,41.6,58.24,35.2,32-50.24,44.48,23.36,83.84,44.16,4.81,2.54-24.94,37.27-26.24,42.56-1.61,6.57-16.26,52.13-40,52.8-11.94,.33-11.21-25.92-22.72-33.17-15.96-10.05-42.44-1.92-42.44,0Z"/><path class="u" d="M1595.93,409.13c-20.27-2.47-129.51-15.58-144.06-29.39-23.92-5.53-38.14-38.41-36.88-53.53,3.32-19.31,149.8-159.66,223.68-138.39,.67-.53-8.33,25.67-12,27.99l108.64-4.96,32,13.76-15.68,61.62,35.2,22.22,17.84,37.44-23.92,96.63-39.93,64.24-65.67-11.59-38.92-60-40.3-26.04Z"/><path class="v" d="M994.48,990.07c-3.23-10.58-10.89-13.7-26.34-10.32-2.03-25.95,2.72-49.44,22.15-68.28,6.92,8.71,16.46,14.03,25.68,19.75,8.62,5.35,17.95,8.24,28.02,9.83,8.78,1.38,17.95,2.77,24.85,9.52-9.32,10.61-20.85,17.53-34.52,21.14-9.95,2.63-16.21,11.28-24.78,17.04-2.13,1.43-8.41-2.32-8.05,1.31h-7.02Z"/><path class="u" d="M528.48,147.9c.59,.9,1.19,1.81,1.78,2.71-2.02,1.16-1.51,3.16-1.71,4.96-.74,6.48,2.14,12.11,3.76,18.13,5.89,21.96,16.68,40.1,37.04,51.52-5.06,9.08-10.12,18.16-15.36,27.57-9.29-5.84-15.69-14.23-21-23.2-13.95-23.56-24.63-48.55-30.41-75.45-.44-2.04-.52-4.15-.77-6.23,8.89,0,17.78,0,26.67,0Z"/><path class="t" d="M754.03,106.35c-15.27,10.14-130.57,60.61-144.57,72.63-4.16,3.57-6.78,9.12-12.85,10.5-10.82-13.19-21.46-26.52-34.53-37.63-1.18-1-1.82-2.62-2.72-3.96,28.59-10.33,90.99-43.26,194.67-41.54Z"/><path class="v" d="M777.55,114.52c149.76-16.8,262.41,36.75,262.41,54.17-6.61,7.5-12.66,15.57-18.04,24.12,3.2,4.14,35.32,14.34,.28,.71-32.64-39.27-136.16-74.69-328.16-54.05,7.49,0,76.03-24.96,83.52-24.96Z"/><path class="r" d="M1446.45,990.07c9.52-15.36,19.08-30.69,28.55-46.08,2.31-3.75,4.31-7.7,6.54-11.5,.57-.97,2.16-3.94,4.06-2.4,0,8.89-1.25,17.14-1.25,26.03-6.64,12.8-15.04,23.9-22.05,34.67-5.61,0-10.23-.72-15.85-.72Z"/><path class="r" d="M929.69,561.03c-16,.29-38.85-7.08-61.58-16.34-27.29-11.12-54.08-23.11-79.24-38.41-22.45-13.65-44.09-12.4-66.01,.75-18.62,11.16-34.17,26.02-49.89,40.7-5.48,5.12-11.08,10.08-17.37,14.16-10.06,6.53-20.14,7.09-31.89,3.04-44.24-15.24-77.76-77.91-76.96-117.3,.58-28.45,3.71-55.75,18.07-80.99,8.53-14.99,20.52-24.62,37.66-27.35,23.86-3.81,47.05-2.6,68.63,9.73,5.1,2.91,9.69,6.53,13.89,10.61,15,14.59,32.97,24.33,52.14,32.15,8.02,3.27,15.39,2.16,22.57-2.6,10.79-7.15,19.4-16.93,29.77-24.46,30.91-22.42,62.78-43.98,101.34-49.99,31.2-4.86,62.61-4.17,90.52,14.64,.39,.26,.78,.58,1.22,.69,26.28,6.6,38.28,26.86,48.45,49.48,20.53,45.66,18.26,90.23-7.51,132.65-18.99,31.26-46.91,49.6-93.82,48.85Zm-81.35-145.82c.58,10.8,3.72,21.57,7.14,32.5,5.07,16.23,32.38,21.05,43.89,12.63,15.39-11.26,21.27-26.08,19.02-44.26-1.71-13.79-5.01-27.12-19.86-33.54-9.26-4-18.88-5.09-28.68-4.01-4.86,.54-9.03,3.25-12.18,7.43-6.41,8.51-9.07,18.11-9.33,29.25Zm-227.63,27.61c.14,3.03,0,6.12,.48,9.09,1.05,6.39,.6,14.49,5.15,18.42,8.53,7.37,18.74,13.43,31.12,10.73,16.93-3.69,29.75-23.2,26.54-40.51-.78-4.19-.8-8.32-1.13-12.48-1.16-14.42-18.82-27.77-32.83-24.78-21.66,4.63-30.13,16.04-29.34,39.53Z"/><path class="v" d="M1029.32,210.75c3.9-2.87,3.94-7.77,6.1-11.55,3.35-5.86,6.79-11.65,12.46-16.89,10.58,12.81,22.78,23.56,34.05,35.54-.79,8.63-5.63,15.22-10.29,21.87-3.24,4.64-7.5,9.32-1.53,14.6,4.06,3.6,7.74,1.61,13.12-6.04,3.86-5.49,7.63-11.03,10.73-17.85,16.05,16.68,28.92,33.98,30,57.89,.98,21.69-4.3,42.05-10.85,62.35-5.36,16.61-11.2,33.07-13.53,50.57-3.2,23.99,2.35,45.78,14.49,66.32,7.41,12.53,13.8,25.45,13.29,40.94-4.49,3.83-9.31,7.4-14.63,10.3-11.27-23.84-22.08-47.87-28.67-73.52-5.81-22.63-5.91-45.32-3.35-68.66,2.13-19.39,6.05-38.63,6.34-58.24,.35-23.77-8.94-44.3-22.63-62.68-8.91-11.96-17.47-24.21-26.73-35.93-2.55-3.23-4.12-7.38-8.39-9.03Z"/><path class="r" d="M776.08,585.93c8.63-.31,16.77-.09,24.66,2.57,7.57,2.55,13.66,6.94,14.65,15.27,.95,7.99-3.53,13.95-10.16,17.84-19.59,11.49-40.41,16.76-63.09,11.31-9.4-2.26-16.81-8.18-23.84-14.19-6.99-5.97-5.43-15.7,2.65-21.66,9.43-6.95,20.81-7.88,31.79-9.64,7.81-1.25,15.77-2.05,23.33-1.51Z"/><path class="s" d="M1352.18,718.3c-8.81-30.84-17.25-61.8-26.51-92.51-14.91-49.46-30.23-98.82-52.09-145.79-7.3-15.68-15.8-30.71-29.99-42.89,3.25-44.04,11.21-87.59,29.14-128.92,2-4.62,4.24-9.31,7.95-12.99,3.92,5.66,9.26,8.82,16.09,10.05,4.79,.86,9.56,2.27,14.07,4.1,7.43,3.01,14.97,5.84,18.54,14.32,3.79,9.01,8.71,17.54,12.48,26.55,3.57,8.55,8,16.86,9.14,26.29,2.53,20.97,.52,42.39,5.77,63.05,1.81,7.12-1.27,13.91,.08,20.71,4.07,20.41,4.85,41.05,5.57,61.76,.27,7.63,.51,15.4,1.62,22.95,2.16,14.73,2.94,29.73,1.86,44.25-1.6,21.58-.48,43.2-2.91,64.85-1.74,15.48-3.3,30.81-7.36,45.8-1.65,6.1-.82,12.57-3.47,18.42Z"/><path class="p" d="M1352.18,718.3c2.65-5.85,1.82-12.32,3.47-18.42,4.06-14.99,5.62-30.32,7.36-45.8,2.43-21.65,1.31-43.27,2.91-64.85,1.08-14.52,.3-29.52-1.86-44.25-1.11-7.55-1.35-15.32-1.62-22.95-.72-20.71-1.5-41.35-5.57-61.76-1.36-6.79,1.73-13.59-.08-20.71-5.25-20.66-3.24-42.08-5.77-63.05-1.14-9.43-5.57-17.74-9.14-26.29-3.77-9.01-8.69-17.54-12.48-26.55-3.57-8.48-11.11-11.3-18.54-14.32-4.51-1.83-9.28-3.24-14.07-4.1-6.83-1.23-12.17-4.39-16.09-10.05,1.71-3.64,4.05-6.75,7.31-8.98,37.63,5.06,63.28,28.44,71.78,64.81,4.07,17.41,10.68,34.14,13.79,51.84,4.72,26.92,7.24,54.08,9.45,81.28,2.49,30.73,4.2,61.51,4.44,92.35,.32,41.9-4.61,83.35-10.7,124.71-3.09,20.99-5.98,42.01-8.92,63.02-.48,3.43-.84,6.84-4.8,9.05-2.44-18.91-7.61-36.75-10.85-54.97Z"/><path class="u" d="M1068.85,950.58c-6.9-6.75-16.07-8.14-24.85-9.52-10.07-1.59-19.4-4.48-28.02-9.83-9.22-5.72-18.76-11.04-25.68-19.75,9.17-13.19,22.74-20.99,36.08-29.98,17.15,16.41,39.47,16.63,60.72,20.16,7.28,1.21,14.56,2.4,22.68,5.3-12.75,16.17-25.72,30.92-40.93,43.62Z"/><path class="s" d="M577.32,840.63c-8.66-19.71-23.8-38.35-40.41-51.54,8.85-26.15,29.18-49.47,30.38-79.21,10.31,2.09,41.67,4.5,51.86,6.57-7.98,25.59-14.34,58.99-17.6,84.8-1.94,15.31-16.43,24.94-24.23,39.38Z"/><path class="u" d="M1279.09,267.29c-8.19-1.46-15.4-1.52-23.65-1.49,.1-15.36,1.88-31.43-12.6-42.08-13.35-9.82-28.84-9.37-44.32-8.37-3.53-9.76-6.92-19.13-10.46-28.93,23.76-4.14,46.38-2.11,67.42,9.18,16.78,9.01,27.16,22.47,25.27,42.95-.85,9.25-1.1,18.55-1.67,28.74Z"/><path class="p" d="M1244.01,283.87c7.51-2.53,15.23-.29,23.46-1.35-27.76,49.14-36.25,102.58-40.52,157.12-.62,2.26-2.49,2.83-5.29,2.88,.83-33.23-.8-66.33-2.81-99.41,2.1-1.45,2.34-3.79,3.13-5.98,6.39-17.56,10.24-36.27,22.92-51.01,.73-.84-.11-1.68-.89-2.25Z"/><path class="v" d="M553.23,857.24c.99,19.43-34.02,19.18-39.91,39.74-20.57,4.42-20.5,2.99-34.53,1-6.92-22.1-19.05-30.26-15.47-50.67,4.25-.49,19.67-19.46,23.43-17.6,5.57,2.76,16.47-11.75,22.65-11.2,3.46-3.53,38.97,35.29,43.84,38.72Z"/><path class="p" d="M1109.37,542.21c4.47-2.85,8.93-5.71,14.73-9.42-3.58,15.81-9.03,28.68-20.86,38.65-32.66,27.5-72.61,38.15-112.33,49.36-21.08,5.95-42.49,10.59-63.94,15.01-2.24,.46-4.6,.34-6.9,.49l.12,.13c5.4-4.23,11.95-5.97,18.19-8.37,.81,.36,1.89,1.26,2.4,1.01,10.72-5.29,22.96-5.72,33.79-10.76,7.99-3.72,16.05-7.81,24.53-9.78,12.96-3.01,25.79-5.82,37.33-12.8,8.93-5.39,19.35-8.22,27.24-15.36,5.24-4.73,10.94-8.7,17.24-11.75,10.9-5.29,19.59-13.29,27.77-21.96,1.18-1.25,3.24-2.55,.7-4.46Z"/><path class="v" d="M569.34,225.21c-20.36-11.42-31.15-29.55-37.04-51.52-1.61-6.02-4.5-11.64-3.76-18.13,.2-1.8-.3-3.8,1.71-4.96,7.86,1.76,13.17,7.35,18.95,12.35,13.59,11.76,25.24,25.21,35.92,39.97-5.41,7.63-10.59,14.95-15.78,22.28Z"/><path class="u" d="M567.19,857.08c-4.87-3.43-22.5,14.64-25.95,18.18,6.72-23.77-12.97-14.19-26.73-19.61-12.16,0-12.7-14.1-15.19-29.12,2.45-22.12,21.82-11.63,28.21-34.25,18.75,20.31,41.45,37.23,39.66,64.8Z"/><path class="t" d="M1109.37,542.21c2.54,1.91,.48,3.21-.7,4.46-8.19,8.67-16.87,16.67-27.77,21.96-6.29,3.05-12,7.02-17.24,11.75-7.89,7.13-18.31,9.96-27.24,15.36-11.54,6.97-24.37,9.79-37.33,12.8-8.48,1.97-16.55,6.06-24.53,9.78-10.83,5.04-23.07,5.48-33.79,10.76-.51,.25-1.58-.64-2.4-1.01,23.78-10.45,47.87-20.16,70.75-32.66,33.2-18.12,66.81-35.51,100.24-53.2Z"/><path class="s" d="M583.11,634.71c1.69-10.21,7.42-18.88,10.89-29.57,27.42,18.54,57.03,31.43,87.38,42.76-11.31,1.4-22.69,.43-33.72-1.37-21.76-3.56-43.62-5.75-65.57-7.39,.11-.94,.23-1.88,.34-2.82l.68-1.61Z"/><path class="p" d="M582.09,639.14c21.95,1.65,43.81,3.84,65.57,7.39,11.03,1.8,22.4,2.77,33.72,1.37,8.87,3.25,17.73,6.5,26.6,9.75-42.83,2.5-85.17-1.48-127.56-6.59-.48-4.39,.29-8.2,1.67-11.93Z"/><path class="s" d="M1244.01,283.87c.78,.57,1.61,1.4,.89,2.25-12.68,14.74-16.53,33.45-22.92,51.01-.8,2.19-1.03,4.53-3.13,5.98-2.29-17.85-4.57-35.71-6.89-53.83,11.02-2.71,21.41-4.79,32.05-5.41Z"/><path class="p" d="M920.06,636.31c-.28,1.77-1.47,1.04-2.53,.48,.88-.12,1.76-.24,2.65-.35l-.12-.13Z"/><path class="p" d="M583.11,634.71c-.23,.54-.45,1.07-.68,1.61l.68-1.61Z"/><ellipse class="q" cx="983.52" cy="774.68" rx="41.44" ry="38.88"/><path class="r" d="M986.42,824.33c-10.2,1.01-19.54-1.92-28.83-5.08-16.51-5.61-23.05-18.79-25.21-34.6-1.26-9.26,.02-18.72,2.21-27.81,3.13-12.99,12.67-21.78,23.62-27.23,12.98-6.46,27.11-10.5,42.37-5.2,16.93,5.88,33.88,27.52,34.52,45.35,.66,18.46-3.76,34.78-19.42,46.11-8.64,6.25-18.32,10.19-29.25,8.44Zm-40.76-62.45c-2.65,8.64-1.17,18.33-.11,24.66,1.03,6.13,4.55,11.88,10.31,15.24,12.97,7.56,27.35,10.3,41.61,5.63,16.62-5.45,24.02-22.01,20.88-42.4-1.99-12.9-18.16-27.69-32.12-28.08-8.08-.23-20.33,2.67-24.04,4.69-7.41,4.03-14.72,12.16-16.53,20.27Z"/><path class="r" d="M1231.57,662.15c1.14,10.36-1.57,19.36-3.39,28.38-1.05,5.21-3.31,10.16-4.71,15.31-.86,3.16-2.59,5.17-5.78,4.99-23.49-1.3-47.06-2.15-69.43-10.67-.63-.24-1.14-.76-2.62-1.77,4.5-14.86,8.13-30.29,13.75-45.36,24.83-.43,47.78,6.37,72.18,9.12Zm-51.9,.84c-.59,.12-1.19,.25-1.78,.37-3.95-3.07-8.35-1.5-12.99-1.64-3.15,10.88-6.22,21.47-9.35,32.29,5.39,1.58,9.97,4.94,14.48-.13v4.23c5.96,0,11.18,2.52,16.79,1.23,4.89,.85,10.03,4.93,14.36-1.15,.38,.1,.76,.23,1.13,.36,2.79,7.98,8.96,1.68,12.88,3.68,4.45-10.67,7.15-21.1,7.84-32.71-4.47,.99-8.68-5.26-12.83,.7-.38-.23-.78-.3-1.22-.22,.43-2.07-.55-2.96-2.53-3.18-4.66-.52-9.3-1.1-13.96-1.65-4.06-1.99-8.36-2.6-12.83-2.19Z"/><path class="y" d="M848.34,415.21c.26-11.14,2.91-20.75,9.33-29.25,3.15-4.18,7.33-6.89,12.18-7.43,9.8-1.08,19.42,0,28.68,4.01,14.84,6.42,18.15,19.75,19.86,33.54,2.26,18.18-3.62,33-19.02,44.26-11.51,8.42-38.82,3.6-43.89-12.63-3.41-10.93-6.56-21.7-7.14-32.5Z"/><path class="y" d="M620.71,442.82c-.79-23.49,7.68-34.89,29.34-39.53,14.01-3,31.66,10.36,32.83,24.78,.34,4.16,.36,8.3,1.13,12.48,3.21,17.32-9.61,36.82-26.54,40.51-12.38,2.7-22.59-3.36-31.12-10.73-4.55-3.93-4.1-12.03-5.15-18.42-.49-2.98-.34-6.06-.49-9.09Z"/><path class="s" d="M949.02,763.83c6.09-5.68,14.01-6.41,18.45-1.37,.17,.2,.22,.49,.11,.73-1.86,4.16-6.73,2.24-10.51,3.23-2.24,.59-1.33,2.93,.69,3.04,5.75,.3,10.93,1.01,10.97,8.31,.02,4.58-2.86,7.24-7.1,8.33-5.81,1.5-9.6-.92-11.88-5.96-.08-.18-.08-.41,0-.59,2.74-5.72,8.22,2.09,11.73-.92,.4-.34,.08-2.4-.43-2.56-5.75-1.85-13.18-1.56-13.08-9.94l1.03-2.3Z"/><path class="q" d="M1210.19,670.24c4.15-5.97,8.36,.28,12.83-.71-.69,11.61-3.39,22.04-7.84,32.71-3.92-2-10.09,4.3-12.88-3.69,.58-.65,.56-1.28-.06-1.9l-.06,.13c2.06-.28,1.5-1.72,1.33-2.99l-.04,.08c4.66-7.19,4.41-15.78,6.72-23.64Z"/><path class="q" d="M1170.03,693.87c-4.51,5.07-9.09,1.71-14.48,.13,3.13-10.82,6.2-21.4,9.35-32.29,4.64,.14,9.04-1.42,12.99,1.64,.19,.37,.37,.75,.56,1.13l.02-.05c-5.19,7.66-6.06,16.53-7.05,25.36l.05-.08c-2.33,.8-1.99,2.51-1.48,4.28l.04-.13Z"/><path class="t" d="M1192.5,665.18c4.65,.55,9.3,1.13,13.96,1.65,1.97,.22,2.96,1.11,2.53,3.18-2.55,7.79-4.36,15.75-5.51,23.87l.04-.08c-1.86,.37-1.3,1.81-1.33,2.99l.06-.13c-.36,.51-.72,1.02-1.07,1.54-4.33,6.08-9.47,2-14.36,1.15-.09-.31-.12-.62-.1-.94,2.37-.92,1.8-2.81,1.51-4.6l-.12,.18c2.15,.32,1.06-2.72,2.86-2.77l-.06-.05c.45,1.42,1.39,1.92,2.82,1.51v.02c.31,1.6,1.34,1.55,2.8,.99,.08-1.69,.17-3.5,.26-5.3l-.11,.11c1.56,.62,2.36-.16,2.83-1.54l-.06,.05c.91-.04,1.74-.17,1.51-1.42l-.06,.05c5.31-1.2,1.04-6.7,4.94-8.78-2.69-1-3.96-2.98-6.3-2.47-.83-.05-1.65-.09-2.48-.14,.26-.39,.4-.83,.43-1.3l1.32-3.92c-1.94-.73-3.75-1.4-5.57-2.08v-.02c.47-1,.18-1.63-.89-1.91l.15,.17Z"/><path class="s" d="M1186.71,698.4c-.02,.32,.02,.63,.1,.94-5.6,1.29-10.83-1.23-16.79-1.23v-4.23l-.04,.13c1.82-.97,1.66-2.62,1.48-4.28l-.05,.08c3.02-2.61,1.38-7.2,4.18-9.9l-.1-.07c.34,1.83,.62,3.7,2.8,4.34l-.04-.05c.03,.95,.5,1.45,1.46,1.47l-.05-.04c2.16,1.86,.67,4.99,1.72,6.56,2.58,1.44,5.9-3.57,6.71,1.87l.12-.18c-2.43,.9-1.3,2.97-1.51,4.6Z"/><path class="s" d="M1192.5,665.18l-.15-.18c-.44,.79-.87,1.58-1.31,2.37-1.85-.05-3.96-.15-4.07,2.35-.26,5.92-3.45,6.56-7.69,4.65-2.34,1.46,.94,6-3.78,5.45l.1,.07c-.92-5.5,2.95-10.11,2.87-15.46l-.02,.05c.91-.09,1.19-.7,1.22-1.5,4.47-.4,8.77,.2,12.83,2.19Z"/><path class="w" d="M1203.48,693.88c1.15-8.12,2.95-16.08,5.51-23.87,.43-.08,.84,0,1.22,.23-2.31,7.87-2.06,16.45-6.72,23.64Z"/><path class="w" d="M1201.17,698.19c.36-.51,.72-1.02,1.07-1.54,.62,.61,.64,1.24,.06,1.9-.37-.13-.75-.26-1.13-.36Z"/><path class="w" d="M1179.67,662.99c-.04,.8-.32,1.41-1.22,1.5-.18-.38-.37-.76-.56-1.13,.59-.12,1.19-.24,1.78-.37Z"/><path class="s" d="M1006.78,787.26c-.4,.38-.95,.6-1.5,.61-10.97,.33-13.93-2.53-13.76-13.44,.07-4.21-1.58-8.89,1.16-13.19,.7-1.1,2.24-1.38,3.27-.58,5.96,4.67,.29,13.28,3.78,18.62,.88,1.35,2.74,1.48,3.79,.25,1.85-2.17,1.34-5.14,1.81-7.67,0-3.35-.13-9.2,1.27-9.99,1.32-.74,1.31-.57,2.81-.47,.6,.04,1.14,.59,1.3,1.17,2.37,8.99,2.76,18.34-3.92,24.69Z"/><path class="s" d="M986.04,759.76c2.63,2.2,2.96,3.7,.57,6.17-2.7,.3-5.75,.61-8.85,.96-.13,1.48-.43,4.1,.37,4.37,1.91,.65,7.65-1.17,7.51,.64,1.85,5.36-4.64,3.86-7.94,4.53-.1,2.29-.13,5.35-.22,7.43-2.41,2.82-4.46,2.15-6.76-.15v-23.01c5.32-1.91,10.59-.5,15.31-.94Z"/><path class="w" d="M1202.19,696.78c.03-1.18-.53-2.62,1.33-2.99,.17,1.27,.73,2.71-1.33,2.99Z"/><path class="w" d="M1178.46,664.44c.08,5.35-3.78,9.96-2.87,15.46-2.8,2.7-1.16,7.29-4.18,9.9,.99-8.83,1.86-17.7,7.05-25.36Z"/><path class="w" d="M1171.46,689.71c.18,1.66,.35,3.31-1.48,4.28-.52-1.78-.85-3.49,1.48-4.28Z"/><path class="q" d="M1193.24,666.92v.02c1.04,1.96,2.07,3.92,3.1,5.87-1.32,1.52-2.02,3.26-1.94,5.2,1.66,1.56,2.85,1.11,3.8-.58h4.26c-1.83,3.02-1.01,5.65-1.56,8.19l.06-.05c-1.03-.09-1.78,.13-1.51,1.42l.06-.05c-1.52-.55-2.49-.07-2.83,1.54l.11-.11c-2.69,.25-1.22,3.45-3.05,4.31v-.02c-.27-1.77-1.32-2.07-2.83-1.51l.06,.05c-.87-5.03-4.49-.8-6.49-1.9-1.22-1.8-1.57-4.62-4.8-3.77l.05,.04c.44-1.41-.06-1.89-1.46-1.47l.04,.05c.65-2.11,1.31-4.22,2.14-6.89,2.53,1.18,4.97,.47,7.39-.99,.56-2.45-.24-5.62,3.12-6.79,.76-.86,1.53-1.72,2.29-2.59Z"/><path class="w" d="M1179.67,685.54c3.23-.86,3.58,1.97,4.8,3.77,2,1.1,5.63-3.13,6.49,1.9-1.8,.04-.71,3.08-2.86,2.77-.81-5.44-4.12-.43-6.71-1.87-1.05-1.57,.44-4.7-1.72-6.56Z"/><path class="w" d="M1200.9,685.63c.55-2.54-.28-5.17,1.56-8.19h-4.26l-.26-.53c.53-.84,1.07-1.69,1.6-2.53,2.34-.52,3.61,1.47,6.3,2.47-3.9,2.08,.37,7.58-4.94,8.78Z"/><path class="r" d="M1198.2,677.43c-.95,1.69-2.14,2.14-3.8,.58-.08-1.94,.61-3.68,1.94-5.2l.56,.19,.59-.06c-.03,.47-.17,.91-.43,1.3-.8,1.25-1.25,2.38,.88,2.67l.26,.53Z"/><path class="w" d="M1197.49,672.94l-.59,.06-.56-.19c-1.03-1.96-2.06-3.92-3.09-5.87,1.81,.68,3.63,1.36,5.57,2.08l-1.32,3.92Z"/><path class="w" d="M1193.73,692.69c1.83-.86,.36-4.06,3.05-4.31-.09,1.8-.18,3.61-.26,5.3-1.46,.55-2.49,.61-2.8-.99Z"/><path class="u" d="M1197.94,676.91c-2.13-.29-1.68-1.42-.88-2.67,.83,.05,1.65,.09,2.48,.14-.53,.84-1.07,1.69-1.6,2.53Z"/><path class="w" d="M1186.71,698.4c.21-1.63-.92-3.7,1.51-4.6,.29,1.79,.86,3.68-1.51,4.6Z"/><path class="w" d="M1190.9,691.16c1.51-.56,2.56-.26,2.82,1.51-1.43,.41-2.37-.09-2.82-1.51Z"/><path class="w" d="M1196.68,688.49c.35-1.61,1.31-2.09,2.83-1.54-.47,1.39-1.27,2.16-2.83,1.54Z"/><path class="r" d="M1193.24,666.92c-.76,.86-1.53,1.72-2.29,2.58,.03-.71,.06-1.42,.09-2.12,.44-.79,.87-1.58,1.31-2.37,1.07,.28,1.36,.92,.89,1.91Z"/><path class="w" d="M1199.45,686.99c-.27-1.29,.47-1.51,1.51-1.42,.23,1.25-.6,1.38-1.51,1.42Z"/><path class="w" d="M1191.04,667.37c-.03,.71-.06,1.41-.09,2.12-3.37,1.17-2.56,4.35-3.13,6.79-2.42,1.46-4.85,2.17-7.39,.99-.83,2.67-1.48,4.78-2.14,6.89-2.18-.64-2.47-2.51-2.8-4.34,4.72,.55,1.44-3.99,3.78-5.45,4.24,1.91,7.44,1.28,7.69-4.65,.11-2.5,2.22-2.4,4.07-2.35Z"/><path class="w" d="M1178.26,684.11c1.41-.42,1.9,.06,1.46,1.47-.96-.02-1.43-.52-1.46-1.47Z"/><path class="r" d="M514.02,956.91c-2.09-3.82-4.56-7.37-6.98-10.96-7.79,7.24-13.76,11.35-17.76,14.55-3.23,2.31-8.73,7.09-13.81,11.15-3.35,3.19-8.21,6.77-16.68,14.43-.78,1.2-1.44,2.52-1.89,4h20.56c.61-.53,1.29-1.02,2.02-1.5,1.85-1.2,3.57-2.82,5.54-3.95,9.51-8.49,20.37-17.14,30.09-25.57,.51,.05-.34-.82-1.07-2.15Z"/><path class="r" d="M1450.8,836.86c-.19-.07-.74-.12-1.04-.43-12.72-13.11-27.47-13.75-43.74-7.77-9.59,3.53-19.76,5.06-29.96,6.77-5.06-12.46-1.8-24.62,.67-36.49,3.77-18.19,9.63-35.9,11.58-54.54,1.99-18.94,5.09-37.76,7.6-56.65,1.8-13.5,3.43-27.03,5.27-41.62,5.85,4.95,8.06,11.1,11.32,16.46,4,6.57,7.6,13.4,11.52,20.02,3.09,5.22,7.24,8.65,15.6,6.16,9.42-7.37,11.01-24.12,25.89-29.2,6.02,3.2,6.47,10.05,9.04,15.57,3.14,6.75,5.34,10.59,10.73,16.66l-.13-33.37c-.57-.3-2.15-5.67-2.48-6.14-10.26-14.23-21.73-12.28-34.16-2.48-5.6,4.42-9.91,9.81-14.32,16.94-9.1-16.97-17.76-33.38-31.35-46.87,1.76-23.66,1.82-47.41,.77-71.11,2.66-1.06,3.62,1.14,4.84,2.16,12.22,10.34,26.12,13.73,41.12,8.28,12.08-4.38,23.38-4.09,34.78,1.33v-18.25c-11.93-5.56-23.95-4.92-35.94-.3-13.26,5.11-24.28,1.75-33.84-8.32-3.69-3.89-7.87-7.32-11.67-10.81-1.44-19.8-2.41-38.86-4.3-57.82-2.56-25.65-4.67-51.41-10.84-76.54-1.24-5.06-.95-9.51,1.49-14.07,4.29-7.99,7.73-16.44,14.46-25.54-.12,14.47,7.87,23.01,16.79,30.24,15.75,12.77,33.54,21.88,53.69,25.83,3.42,.67,6.77,1.72,10.15,2.59v-16.35c-19.55-4.27-38.61-12.3-53.16-26.11-10.1-9.58-13.98-23.37-12.72-38.49,18.37-23.51,37.38-46.18,61.32-65.03,.67-.53,5.88-5.62,6.72-5.95l1.76-15.2c-2.88-2.28-8.02,2.41-9.47,3.51-39.21,29.89-72.67,64.95-97.08,108.14-.33,.59-.84,1.09-2.18,2.78-3.94-21.94-11.99-40.78-28.11-55.68-15.84-14.63-34.71-23.05-55.15-28.85-.7-9.18,.9-17.95,1.18-26.77,1.13-34.87-14.77-57.61-47.92-69.07-21.24-7.34-42.89-8.24-64.9-4.88-1.36,.21-2.74,.35-4.19,.54-4.52-7.56-8.93-14.91-13.33-22.27h-19.65c24.08,33.93,36.99,72.44,44.49,112.76,4.47,23.99,6.76,48.39,8.96,72.77,2.98,33.1,4.49,66.21,4.06,99.41-.58,45.2-9.4,88.92-24.42,131.48-1.93,5.47-5.96,8.91-9.98,12.33-13.7,11.66-27.24,23.58-41.56,34.44-28.97,21.96-62.23,35.53-96.6,46.11-53.53,16.48-108.06,28.6-163.72,35.59-37.73,4.74-75.25,11.26-113.15,14.66-37.32,3.36-74.62,3.16-112.02-.21-34.99-3.16-68.84-12.03-103.25-18.05-2.98-.52-5.99-.86-9.33-1.34-2.89-9.57-2.05-19.63-3.26-30.47,17.31,6.66,35.07,8.5,52.69,10.61,49.7,5.94,99.48,9.79,149.65,6.86,37.57-2.19,75.07-5.07,112.44-9.2,75.04-8.31,148.66-23.26,219.44-50.26,19.33-7.38,36.79-18.27,52.74-31.31,16.01-13.08,22.61-31.55,26.92-51,5.4-24.41,3.65-48.03-10.4-69.3-20.44-30.94-18.07-62.7-6.02-95.67,7.67-20.99,13.89-42.43,15.63-65.01,2.19-28.44-5.13-54.15-25.29-73.94-18.46-18.13-42.28-40.59-56.39-60.14-5.73-7.95-14.16-23.8-35.05-34.73-7.33-3.83-29.3-12.15-29.49-11.11l-7.2,13.28c9.2,2.64,22.88,8.16,31.44,12.48,6.89,3.48,18.23,13.05,21.13,19.77-6.61,7.5-12.66,15.57-18.04,24.12-.68,1.97-1.37,3.93-2.03,5.9-2.92,8.81,.17,12.75,9.43,12.03,3.9-2.87,3.94-7.77,6.1-11.55,3.35-5.86,6.79-11.65,12.46-16.89,10.58,12.81,22.78,23.56,34.05,35.54-.79,8.63-5.63,15.22-10.29,21.87-3.24,4.64-7.5,9.32-1.53,14.6,4.06,3.6,7.74,1.61,13.12-6.04,3.86-5.49,7.63-11.03,10.73-17.85,16.05,16.68,28.92,33.98,30,57.89,.98,21.69-4.3,42.05-10.85,62.35-5.36,16.61-11.2,33.07-13.53,50.57-3.2,23.99,2.35,45.78,14.49,66.32,7.41,12.53,13.8,25.45,13.29,40.94-4.49,3.83-9.31,7.4-14.63,10.3-42.86,28.55-89.81,49.66-135.22,73.51-30.51,16.03-63.52,26.9-94.91,41.28-12.62,5.78-24.78,13.54-38.98,14.97-28.12,2.83-56.3,5.04-84.45,7.53-5.61,.5-11.23,1.04-16.45-1.79-12.76-6.92-26.44-11.69-40.01-16.62-33.8-12.29-67.3-25.15-97.5-45.24-38.12-25.35-72.79-54.72-103.65-88.55-3.9-4.27-7.16-9.08-9.59-14.25,.61-.91,.89-1.61,1.4-2.05,5.46-4.76,11.05-9.37,16.42-14.23,5.73-5.19,6.81-13.85,2.32-20.15-2.32-3.25-5.23-6.14-8.16-8.9-5.09-4.8-10.34-9.42-14.8-15.37,2.06-1.33,3.99-2.61,5.95-3.83,16.06-10.01,31.65-20.72,47.15-31.57,4.98-3.49,8.27-7.64,7.22-14.01-3.22-19.49-.23-38.72,2.75-57.86,10.77-69.23,44.27-123.42,105.99-158.63,7.69-4.39,15.7-8.19,23.55-12.3,1.16-.61,3.39-.41,2.51-2.86h-29.48c-15.27,10.14-31.34,19.07-45.34,31.09-4.16,3.57-6.78,9.12-12.85,10.5-10.82-13.19-21.46-26.52-34.53-37.63-1.18-1-1.82-2.62-2.72-3.96h-30.88c.59,.9,1.19,1.81,1.78,2.71,7.86,1.76,13.17,7.35,18.95,12.35,13.59,11.76,25.24,25.21,35.92,39.97-5.41,7.63-10.59,14.95-15.78,22.28-5.06,9.08-10.12,18.16-15.36,27.57-9.29-5.84-15.69-14.23-21-23.2-13.95-23.56-24.63-48.55-30.41-75.45-.44-2.04-.52-4.15-.77-6.23h-16.84c8.88,46.17,24.88,88.69,61.88,122.02-10.8,34.72-17.06,71.49-14.83,110.31-19.21,12.62-37.84,27.45-59.37,37.8-6.09,2.93-7.39,9.25-2.44,15.13,6.17,7.32,12.29,14.72,19.55,21.05,2.63,2.29,5.11,4.77,7.79,7.29-6.46,6.17-13.7,10.99-19.41,17.57-5.02,5.79-5.34,11.64-1.66,17.93,4.72,8.07,9.84,15.81,16.62,22.44,21.87,21.39,42.05,44.6,67.8,61.75,6.58,4.38,12.71,9.42,19.29,14.33-7.11,17.23-15.41,33.75-16.99,52.89-22.02-2.28-40.87-8.43-53.92-27.81-42.16-62.64-68.65-131.49-83.33-205.23-6.6-33.19-8.86-66.67-6.76-100.41,1.55-24.81,7.5-48.76,15.1-72.37,10.52-32.67,23.86-64.13,39.43-94.68h-15.99c-.11,.18-.21,.37-.33,.55-.58,.88-1.19,1.58-1.89,2.23-.5,.93-1.01,1.85-1.61,2.68-1.56,2.15-2.82,4.51-3.99,6.9-1.84,3.76-3.82,7.43-5.9,11.06-15.65,34.95-29,70.68-36.76,108.32-6.33,30.68-6.75,61.7-3.99,92.77,6.13,69.05,26.59,134.08,56.52,196.25,12.25,25.44,26.82,49.61,44.06,72.09,5.3,6.91,7.13,15,7.7,23.56,.72,10.92,1.55,21.84,2.76,32.71,.74,6.67,6.41,7.55,11.57,7.71,8.45,.26,16.71,1.54,24.92,3.32,1.33,.29,2.6,.81,3.94,1.24-.35,15.37-6.02,28.8-13.2,41.67-7.7,13.79-13.88,28.05-18.86,42.66,4.81,4.05,9.02,8.81,12.89,13.83,.05-.18,.1-.35,.15-.53,12.15,13.16,21.72,26.43,29.42,41.85,1.95,2.72-.07,3.68,3.48,7.66s14.88,8.92,17.36,4.45c12.59-22.77,22.29-46.93,29.65-79.15,4.36-19.07,9.6-52.8,10.56-59.54,15.53,1.41,22.69,2.38,37.99,3.35,30.6,1.92,61.2,1.4,91.73-1.44,45.07-4.19,89.81-11.06,134.56-17.64,62.55-9.21,123.95-23.39,183.05-46.3,11.68-4.53,22.86-10.35,34.28-15.57,11.42-4.34,20.61-12.32,31.55-19.73-3.8,20.14-8.02,39.07-14.33,57.45-20.66,60.23-47.53,117.25-87.31,167.53-5.81,7.34-12.21,13.7-20.74,18.23-14.3,7.59-26.75,17.84-37.93,29.6-24.9,26.2-32.28,57.43-26.67,92.42h.56c.37,.67,.99,1.25,1.93,1.66,5.06,2.2,10.06,2.81,15.56,2.63,2.65-.09,5.46-.39,8.23-.41,8.19,7.64,19.19,13.33,29.5,9.54,1.69,.07,29.47-15.07,30.31-15.28,17.83-4.42,31.84-14.83,44.81-27.38,16.85-16.3,32.47-33.57,46.33-52.49,16.04-21.89,35.05-41.35,51.79-62.69,34.17-43.55,55.75-92.78,67.24-146.73,4.03-18.9,8.88-37.61,13.3-56.43,.52-2.22,.67-4.53,1.15-7.88-6.14,1.9-11.51,3.56-17.32,5.35-3.78,15.59-7.84,31.1-11.26,46.74-8.14,37.25-19.34,73.36-38.15,106.79-14.86,26.42-33.81,49.79-53.59,72.57-7.5,8.64-14.82,17.43-22.78,26.8-23.9-11-52.17-6.21-76.85-19.27,7.69-11.69,14.45-22.74,21.97-33.25,24.38-34.06,43.64-70.99,61-108.93,7.55-16.5,11.39-34.36,15.71-51.97,5.13-20.93,10.25-41.86,15.41-62.78,1.59-6.45,4.48-11.69,10.24-15.9,8.07-5.91,15.2-13.11,22.72-19.77,2.72-2.41,4.02-5.67,5.18-8.99,11.73-33.53,21.07-67.61,23.86-103.21,.16-2.08,.66-4.13,1.09-6.75,5.67-2.37,11.4-4.77,17.47-7.31,6.41,6.2,10.89,13.53,14.93,21.09,15.65,29.27,26.79,60.42,37.08,91.84,19.72,60.18,38.7,120.6,52.02,182.6,8.47,39.42,15.49,79.11,20.64,119.14,3.55,27.56,7.44,55.03,8.82,82.83,.63,12.68-.85,25.22-.62,37.83l14.68,2.21c-.02-.95,2.37-18.04,2.35-18.99,2.95-45.09-4.1-75.51-10.79-120.6,17.75-1.88,34.03-8.83,52.28-11.06,14.26,18.09,32.6,13.82,51.13,8.53,1.29-.37,5.63-2.19,7.01-3.19l-2.96-15.5c-10.76,3.91-21.67,6.86-33.55,5.4Zm-512.43-208.79c23.78-10.45,47.87-20.16,70.75-32.66,33.2-18.12,66.81-35.51,100.24-53.2,4.47-2.85,8.93-5.71,14.73-9.42-3.58,15.81-9.03,28.68-20.86,38.65-32.66,27.5-72.61,38.15-112.33,49.36-21.08,5.95-42.49,10.59-63.94,15.01-2.14,.44-4.39,.35-6.6,.48,5.37-4.13,11.83-5.85,18.01-8.23Zm-18.34,8.39c-.32,1.57-1.47,.87-2.5,.33,.83-.11,1.67-.22,2.5-.33Zm-337.94,2.68c.11-.94,.23-1.88,.34-2.82,.23-.54,.45-1.07,.68-1.61,1.69-10.21,7.42-18.88,10.89-29.57,27.42,18.54,57.03,31.43,87.38,42.76,8.87,3.25,17.73,6.5,26.6,9.75-42.83,2.5-85.17-1.48-127.56-6.59-.48-4.39,.29-8.2,1.67-11.93Zm13.92,160.29c-4.34,14.8-10.89,26.75-18.69,41.2-8.66-19.71-19-36.94-35.6-50.13,8.85-26.15,24.32-48.93,29.45-78.03,10.31,2.09,30.6,5.27,40.79,7.34-2.58,39.46-9.84,58.83-15.95,79.63Zm491.09,102.23c7.28,1.21,14.56,2.4,22.68,5.3-12.75,16.17-25.72,30.92-40.93,43.62-9.32,10.61-20.85,17.53-34.52,21.14-9.95,2.63-19.33,6.73-27.89,12.49-1.18,.79-4.16,2.93-6.54,5.31-1.97-.18-3.92-.43-5.87-.74-3.46-9.52-11.1-12.26-25.89-9.03-2.03-25.95,2.72-49.44,22.15-68.28,9.17-13.19,22.74-20.99,36.08-29.98,17.15,16.41,39.47,16.63,60.72,20.16Zm111.42-686.31c-3.53-9.76-6.92-19.13-10.46-28.93,23.76-4.14,46.38-2.11,67.42,9.18,16.78,9.01,27.16,22.47,25.27,42.95-.85,9.25-1.1,18.55-1.67,28.74-8.19-1.46-15.4-1.52-23.65-1.49,.1-15.36,1.88-31.43-12.6-42.08-13.35-9.82-28.84-9.37-44.32-8.37Zm8.1,36.83c-1.17-6.4-2.41-12.78-3.7-19.58,27.24-5.34,37.42,4.51,35.22,34.61-9.09,1.62-18.35,3.27-27.99,4.98-1.21-6.86-2.33-13.44-3.53-20.01Zm20.33,187.45c-.62,2.26-2.49,2.83-5.29,2.88,.83-33.23-.8-66.33-2.82-99.41-2.29-17.85-4.57-35.71-6.89-53.83,11.02-2.71,21.41-4.79,32.05-5.41,7.51-2.53,15.23-.29,23.46-1.35-27.76,49.14-36.25,102.58-40.52,157.12Zm140.87,324.6c-.48,3.43-.84,6.84-4.8,9.05-2.44-18.91-7.61-36.75-10.85-54.97-8.81-30.84-17.25-61.8-26.51-92.51-14.91-49.46-30.23-98.82-52.09-145.79-7.3-15.68-15.8-30.71-29.99-42.89,3.25-44.04,11.21-87.59,29.14-128.92,2-4.62,4.24-9.31,7.95-12.99,1.71-3.64,4.05-6.75,7.31-8.98,37.63,5.06,63.28,28.44,71.78,64.81,4.07,17.41,10.68,34.14,13.79,51.84,4.72,26.92,7.24,54.08,9.45,81.28,2.49,30.73,4.2,61.51,4.44,92.35,.32,41.9-4.61,83.35-10.7,124.71-3.09,20.99-5.98,42.01-8.92,63.02Z"/></g><g id="c"><path class="r" d="M1033.11,141.86c-27.68-14.04-57.44-24.38-87.52-31.83-57.27-14.19-117.37-17.19-175.43-5.97-40.56,7.84-79.51,22.91-115.17,43.72-8.33,4.86-.79,17.83,7.57,12.95,58.6-34.18,125.25-50.61,192.99-48.38,47.02,1.54,93.74,11.54,137.67,28.29,11.36,4.33,20.91,8.39,32.31,14.17,8.59,4.36,16.19-8.58,7.57-12.95h0Z"/></g><g id="d"><path class="t" d="M510.07,100.5C731.47-40.04,966.35,27.16,985.65,36.76c-4.48,11.2,24.71,112.07,7.58,93.55-6.87-7.43-317.44-98.03-523.52,70.07,8.53-54.57-1.24-48.68,40.36-99.88Z"/><path class="r" d="M421.9,288.22c.23-.64,.51-1.26,.75-1.89,.63-1.68-.73,1.63-.31,.72,.2-.43,.37-.87,.56-1.3,.46-1.02,.92-2.05,1.4-3.07,3.08-6.57,6.58-12.95,10.35-19.16,2.63-4.34,5.4-8.6,8.29-12.78,1.63-2.36,3.31-4.7,5.01-7,.9-1.22,1.82-2.43,2.73-3.63,1.19-1.56-.64,.8,.4-.51,.54-.68,1.07-1.37,1.62-2.05,9-11.31,18.86-21.93,29.41-31.81,27.26-25.52,59.27-45.86,94.65-61.31,47.67-20.82,101.54-31.7,154.1-35.11,75.91-4.92,152.24,4.19,226.37,20.31,11.37,2.47,22.71,5.13,34,7.92,9.37,2.32,13.37-12.14,3.99-14.46-78.74-19.47-160.09-32.08-241.4-29.82-56.73,1.57-113.89,10.5-167.01,30.96-38.55,14.85-74.68,35.51-106,62.54-21.19,18.29-40.04,39.51-55.26,63.03-6.67,10.31-14.37,22.05-17.94,33.97-.05,.16-.12,.31-.18,.47-3.3,9.09,11.19,13,14.46,3.99h0Z"/></g><g id="e"><path class="r" d="M466.49,161.87c28.64-47.52,76.03-80.72,126.04-103.2,58.06-26.1,122.14-39.05,185.48-42.65s132.18,2.43,195.33,20.91c57.12,16.71,112.78,44.17,154.7,87.19,46.5,47.73,69.59,112.56,74.69,178.23,.98,12.57,1.33,25.17,1.22,37.77-.08,9.65,14.92,9.66,15,0,.64-74.61-17.3-150.6-65.01-209.43-39.04-48.14-94.81-80.24-152.64-100.54C937.9,7.91,869.71-1.08,802.66,.1c-66.58,1.17-133.99,12.26-196.15,36.57-54.61,21.35-106.72,53.43-141.99,101.19-3.92,5.3-7.57,10.79-10.98,16.44-5,8.29,7.97,15.84,12.95,7.57h0Z"/></g><g id="f"/><g id="g"><path class="u" d="M349.93,1150.42c-1.02-7.22-3.2-14.25-4.31-21.48-2.36-15.34-2.86-30.93-4.27-46.37-.68-7.47-1.54-14.94-2.79-22.34-1.18-6.99-2.09-15.93-6.61-21.55-4.03-5.02-10.05-5.47-15.12-8.72-1.22-.78-2.37-1.67-3.47-2.61-1.48-4.11-2.5-8.39-4.26-12.38-2.06-4.67-5.4-7.56-9.81-9.67-5.35-2.56-11.09-5.16-16.79-6.76-9.9-2.77-17.81,2.57-21.73,12.09-8.56,20.81-3.16,46.16-.54,67.84,.35,8.58,.74,17.06,.43,25.16-4,.97-7.09,5.51-4.72,10.87,4.84,10.97,11.92,21.78,20.87,29.71,6.07,7.92,12.99,15.73,21.62,20.53,7.65,4.25,16.3,5.89,24.54,3.32,8.24,3.32,17.68,4.68,23.72-2.22,3.68-4.19,3.99-10.07,3.23-15.42Zm-59.61-80.98"/><path class="v" d="M346.08,1158.9c.15-.62,.2-1.27,.06-1.96-2.39-12.08-4.78-24.17-7.17-36.25-.26-1.31-1-2.19-1.93-2.69,2.6-11.64,3.1-23.61,1.35-35.47-.77-5.23-1.65-11.23-6.07-14.72-.73-.58-1.5-1.04-2.28-1.39,3.02-1.26,4.46-5.96,.76-8.02-1.43-.79,1.33-6.07,1.58-7.13,.58-2.41,.64-4.82-.4-7.11-.34-.74-.77-1.44-1.29-2.06,2.11-1.41,3.26-4.56,1.06-7.02-5.19-5.81-10.38-11.62-15.57-17.43-2.8-3.13-7.36-.42-7.65,3.17-.55,6.75,.86,13.29,4.08,19.11-.86,.64-1.73,1.27-2.59,1.91-3.07,2.26-2.68,9.01,2.26,8.35,6.36-.85,2.26,11.57,1.56,14.76-1.22,5.56-2.44,11.12-3.66,16.69-.96,4.39,4.13,7.45,7.49,4.36,1.82-1.68,4.01-4.03,6.55-4.53,3.34-.66,4.45,1.75,3.76,4.69-1.16,4.96-5.45,9.52-7.54,14.18-4.43,9.85-6.47,20.43-6.02,31.22,.09,2.22,1.99,4.75,4.48,4.48,2.42-.27,4.84-.53,7.26-.8-.21,3.61-2.25,7.14-3.58,10.47-1.73,4.33-3.04,9.09-1.68,13.72,3.21,10.93,17.46,13.43,24.46,4.65,1.37-1.72,1.5-3.66,.71-5.17Zm-23.36-119.72c-.07-.13-.15-.27-.25-.4-.56-.78-1.06-1.58-1.52-2.38,.79,.88,1.58,1.77,2.37,2.65-.2,.03-.4,.08-.6,.13Zm1.5,87.3c-.28,.03-.56,.06-.84,.09,.02-.62,.05-1.24,.08-1.85,.23,.59,.48,1.18,.76,1.76Z"/><path class="w" d="M263.48,1020.11c-5.92-2.3-10.85,2.88-11.54,8.74-.88,7.45-.88,15.14-1.34,22.64-.3,4.82,9.6,10.08,13.79,2.96,3.32-5.64,5.17-12.02,5.39-18.66,.19-5.57-.48-13.41-6.29-15.67Z"/><path class="w" d="M290.87,1040.38c-1.8-3.3-5.09-4.11-8.59-3.7-7.59,.89-13.58,16.36-13.56,25.05,.02,6.87,4.94,13.38,12.1,11.42,8.63-2.36,10-13.37,11.16-20.87,.61-3.96,.93-8.15-1.11-11.9Z"/><path class="w" d="M281.62,1100.12c-4.01-12.55-12.03-26.33-24.24-31.39-3.68-1.52-6.06,3.39-4.4,6.37-1.79,1.3-2.88,3.6-2.17,6.6l9,38.12c2.4,10.17,7.91,33.05,20.49,34.05,2.69,.22,3.65-5.19,4.47-7.63,4.43-13.33,1.15-32.73-3.13-46.13Z"/><path class="r" d="M339.82,1027.27c-2.08,.23-4.38,.38-6.44,.02,.02,0-2.28-.77-1.91-.56,.85,.48,.4,.32-.08-.25-.34-.41-.63-.95-.93-1.39-3.78-5.58-7.97-10.97-12.67-15.82-11.39-11.74-28.14-21.81-45.03-16.48-25.33,7.99-27.6,43.27-27.87,65.17-.14,11.89,.6,23.79,1.9,35.6,.42,3.82,.91,7.62,1.46,11.42,.64,4.4-.32-2.44,.22,1.41,2.06,14.68,7.65,29.4,16.25,41.48s19.1,20.7,32.33,26.12c17.57,7.21,36.92,6.77,55.29,3.26,9.47-1.81,5.46-16.27-3.99-14.46-25.92,4.95-51.89,.57-68.81-20.03-2.2-2.67-5.28-7.45-7.43-11.51-.96-1.81-1.85-3.67-2.69-5.54s0,.13-.75-1.78c-.37-.95-.74-1.91-1.09-2.87-1.91-5.31-3.28-10.74-4.31-16.28-.61-3.3,.54,3.84-.3-2.04-.08-.58-.18-1.16-.26-1.74s-.16-1.13-.24-1.69c-.07-.48-.18-1.41,.1,.75-.06-.47-.12-.93-.18-1.4-1.19-9.71-2.05-19.45-2.37-29.23-.41-12.13-.25-24.69,1.98-36.35,1.02-5.36,2.61-11.29,4.64-15.38,.46-.92,.95-1.83,1.47-2.72,.27-.46,1.96-2.92,1.34-2.13,1.56-2,3.07-3.35,4.1-4,.48-.31,.98-.59,1.47-.87,1.53-.86-.22-.05,1.05-.5,1.19-.42,2.45-.78,3.7-.95,3.99-.55,8.14,.27,11.82,1.82,7.32,3.09,13.38,8.88,18.56,14.75,3.77,4.28,6.37,9.15,10.15,13.53,4.63,5.37,12.81,6.39,19.52,5.64,4.03-.45,7.5-3.13,7.5-7.5,0-3.71-3.45-7.95-7.5-7.5h0Z"/></g><g id="h"><path class="r" d="M658.02,1154.76c3.65-9.57,6.38-21.71-.39-30.59-5.51-7.23-15.09-8.97-23.7-8.42-20.84,1.34-38.67,12.48-58.16,18.69-43.78,13.96-90.53,19.95-136.12,24.46-17.48,1.73-35.15,3.3-52.72,3.6-5.71,.1-11.52,.09-17.19-.65-3.86-.5-8.27-1.76-10.53-3.05,.46,.26-1.47-1.54-.53-.36-.76-.95,.12,.64-.48-.92-.67-1.74-1.13-3.58-1.61-5.38-1.13-4.24-2.04-8.54-2.87-12.85-4.23-22.02-6.63-44.46-8.43-66.8-.7-8.62-1.36-17.28-1.43-25.93-.01-1.17-.04-2.35,.03-3.52,.05-.76,.41-2.18,.77-2.7-.56,.81,.69-.76,1.03-1.03,.14-.11,.65-.51,1.48-.96,1.93-1.05,3.81-1.72,5.92-2.35,13.41-3.98,27.72-5.03,41.45-7.54,14.95-2.74,29.39-7.23,43.28-13.39,16.29-7.23,32.16-17.02,45-29.49,.62-.6,1.24-1.2,1.82-1.84,6.53-7.1-4.06-17.73-10.61-10.61-8.51,9.26-18.64,15.77-29.8,22-11.95,6.66-24.65,11.75-37.85,15.32-15.05,4.07-30.55,5.72-45.85,8.5-9.94,1.81-22.35,4.17-28.41,13.21-4.24,6.33-3.36,14.45-3.04,21.69,.99,22.11,3.39,44.21,6.42,66.13,1.44,10.4,3.04,20.81,5.38,31.05,1.92,8.4,3.79,16.92,11.95,21.38,9.46,5.16,21.68,5.2,32.16,5.12,11.39-.09,22.76-1.1,34.12-1.86,41.38-2.78,83.04-8.48,123.58-17.17,21.93-4.7,42.85-10.95,63.36-20.01,8.63-3.81,18.47-7.13,27.87-7.74,2.06-.13,4.18-.19,6.24,.05-.89-.1,.94,.17,1.21,.23,.5,.12,.99,.24,1.48,.39,1.25,.37-.07-.14,.59,.17,.74,.35,1.42,.78,2.09,1.24-.99-.67,.2,.31,.47,.66-.97-1.26,.46,1.23,.25,.55-.16-.53,.52,2.1,.48,1.85,.64,4.4-1.47,10.37-3.2,14.89-3.45,9.03,11.05,12.93,14.46,3.99h0Z"/></g><g id="i"><path class="u" d="M551.76,1309.2c-2.04-7.48-5.32-14.59-7.46-22.07-4.53-15.85-7.05-32.2-10.55-48.29-1.7-7.78-3.58-15.54-5.9-23.16-2.19-7.21-.29-17.1-5.98-22.43-5.08-4.75-12.34-5.99-18.35-8.75-1.44-.66-3.67-2.03-5.01-2.88-2.15-4.14-4.81-5.35-7.25-9.32-2.86-4.65-8.53-7.67-13.65-9.32-6.23-2-12.89-3.98-19.38-4.9-11.28-1.61-18.62,5.3-22.46,15.6-7.85,21.02-13.09,39.72-2.43,73.98,1.47,8.99,11.96,58.32,15.25,63.66,6.72,10.92,38.03,15.83,48.16,19.75,8.97,3.47,18.73,4.05,27.5,.26,9.51,2.41,20.1,2.59,25.9-5.46,3.53-4.9,3.14-11.14,1.63-16.67Zm-75.99-77.45"/><path class="v" d="M548.94,1320.42c-1.54-.55-3.08-1.1-4.61-1.64,1.17-.69,2-1.93,1.99-3.66-.04-7.28-1.38-14.31-3.97-20.97,.5-7.47-.04-14.96-1.63-22.23,.69-3.38,.97-6.81-.11-10.17-1.22-3.83-3.55-6.5-6.48-8.34-1.51-2.99-3.2-5.9-5.1-8.69-.36-.53-.78-.93-1.23-1.25,1.25-1.61,2.2-3.43,2.5-5.5,.57-3.9-1-7.56-3.89-9.58,1.44-10.22,2.88-20.44,4.31-30.66,.79-5.64-19.02-11.32-19.82-5.63-18.99-2.36,7.92,26.38,6.3,37.95-.41,2.94-1.56,12.33-3.05,13.92-2.66,2.83-4.33,6.15-4.13,10.09,.12,2.37,1.95,4.55,4.48,4.48,4.1-.11-18.28,33.86-7.01,38.69,8.96,3.84,15.06-1.09,16,6.4,.78,6.24-.64,5.02-1.39,5.77-2.87,2.92-6.03,5.39-9.49,7.58-2.89,1.83-12.73,11.68-8.65,12.24,3.8,.51,8.34,3.85,12.14,4.37,0,0,5.49,7.53,8.66,.33,1.4-3.17-2.7,.37,1.36,.99,9.24,1.43,17.7-.89,24.8-7.02,2.74-2.37,.95-6.45-1.98-7.49Z"/><path class="w" d="M448.27,1188.81c-6.72-2.01-11.84,3.82-12.21,10.07-.48,7.95,.05,16.09,.04,24.07,0,5.13,11.81,9.08,15.97,1.24,3.3-6.21,4.46-14.6,4.26-21.66-.17-5.91-1.46-11.74-8.06-13.72Z"/><path class="w" d="M482.8,1209.64c-1.95-3.53-6.73-5.33-10.68-3.81-7.93,3.03-12.18,16.16-12.28,25.39-.08,7.29,2.76,11.03,10.96,11.62,5.64,.4,10.96-9.2,12.35-17.13,.74-4.19,1.88-12.04-.35-16.06Z"/><path class="w" d="M471.93,1273.82c-9.28-13.44-13.9-31.52-28.94-37.12-4.54-1.69-12.74,2.9-10.72,6.15-2.22,1.39,1.63,4.58,2.48,7.85l10.78,41.41c2.88,11.05,9.48,35.9,25,37.11,3.32,.26,6.79-2.77,7.81-5.41,5.59-14.4,2.37-37.26-6.42-49.99Z"/><path class="r" d="M524.05,1181.46c-1.03,.28-2.09,.51-3.15,.62-.81,.08-4.24-.41-3.15,.06s-.53-.57-1.01-1.07c-.73-.76-1.41-1.58-2.1-2.38-3.8-4.42-7.59-8.77-12.14-12.46-14.67-11.89-34.5-16.01-52.82-10.93-28.05,7.79-28.76,47.47-27.96,70.67,.62,17.96,2.44,36.59,6.55,54.14,3.49,14.88,12.05,29.33,22.73,40.11,28.07,28.35,69.84,27.59,105.67,16.8,9.22-2.77,5.29-17.26-3.99-14.46-17.33,5.22-36.12,8.76-54.21,5.66-12.19-2.09-23.97-7.22-32.54-14.57-7.73-6.63-12.11-12.35-16.88-21.3-.91-1.71-1.74-3.46-2.56-5.22-.17-.37-.33-.74-.49-1.11-.44-.99,.71,1.76,.12,.29-.32-.8-.64-1.59-.94-2.4-.8-2.12-1.52-4.27-2.1-6.46-3.63-13.69-4.64-26.2-5.71-40.04s-1.48-28.09,.64-40.77c.95-5.66,2.63-12.29,4.69-16.41,.55-1.1,1.15-2.18,1.8-3.22,.94-1.49,.84-1.34,1.32-1.9,.88-1.04,1.83-2.01,2.87-2.89,.36-.3,.78-.6,2.34-1.46,1.72-.94,5.96-1.84,9.59-2.2,4.88-.49,9.9-.46,14.71,.58,7.63,1.65,14.38,5.45,19.86,10.54,3.99,3.71,7.19,8.08,10.95,12,5.76,6,14.19,6.37,21.89,4.24,9.29-2.56,5.35-17.04-3.99-14.46h0Z"/></g><g id="j"><path class="r" d="M1371.01,979.48c-.6,38.52-15.13,76.03-34.91,108.97-24.4,40.65-57.55,75.72-94.59,105.1-42.59,33.79-91.38,60.08-142.65,78.04-28.24,9.89-57.33,17.33-86.84,22.25-25.03,4.17-50.32,7.04-75.53,9.87-53.81,6.05-107.78,10.69-161.8,14.28-47.34,3.15-94.78,5.66-142.23,6.18-16.23,.18-32.5,.18-48.72-.76-2.95-.17-5.9-.38-8.84-.66-1.24-.12-2.47-.25-3.7-.39-2.53-.27,.61,.16-1.77-.23-1.84-.3-3.69-.6-5.5-1.06-.68-.17-1.34-.43-2.02-.59-2.1-.5,1.37,.81-.09-.02s.05,.19,.34,.37c-.25-.16-.63-.6-.78-.85,.93,1.69-.22-.33-.48-.76-1.94-3.21-3.06-5.67-4.14-8.57-3.5-9.33-5.87-19.1-7.99-28.83-4.98-22.9-8.32-46.19-10.82-69.48-.52-4.87-1-9.75-1.41-14.63-.17-2-.32-3.99-.46-5.99-.05-.76-.03-1.57-.15-2.32-.23-1.36,.32-.69-.18,.37,1.01-2.17-.42,.76,.19-.62,.37-.83-1.26,1.18-.21,.24,.38-.34,.76-.73,1.12-1.09,1.17-1.19-1.06,.65,.02,0,.47-.29,.93-.6,1.41-.89,1.17-.69,2.39-1.27,3.63-1.83-1.48,.67,2.25-.86,2.98-1.11,1.63-.57,3.28-1.1,4.93-1.6,4.1-1.23,8.25-2.29,12.42-3.29,10.86-2.6,21.82-4.82,32.75-7.08,30.29-6.27,61.24-11.83,90.82-20.99,23.63-7.32,46.06-17.95,70.29-23.4,14.76-3.32,29.73-4.75,44.85-4.81,9.65-.04,9.67-15.04,0-15-29.8,.11-58.04,6.47-85.85,16.79-11.63,4.31-23.17,8.93-35.06,12.5-15.83,4.76-32.15,8.18-48.28,11.78-25.69,5.72-51.7,10.23-77.22,16.67-10.7,2.7-29.55,6.31-33.06,18.97-.84,3.04-.45,6.08-.22,9.18,.37,4.8,.81,9.59,1.3,14.38,1.21,11.9,2.71,23.77,4.41,35.61,3.28,22.76,6.83,46.16,14.42,67.95,2.29,6.57,5.02,14.53,10.28,19.42,2.75,2.56,6.56,3.67,10.16,4.42,11.78,2.46,24.15,2.71,36.13,3.03,43.18,1.15,86.49-.87,129.6-3.17,55.64-2.97,111.23-7.2,166.68-12.67,26.67-2.63,53.32-5.56,79.9-8.96,28.68-3.67,57.19-7.86,85.24-15.01,56.62-14.44,111.07-38.36,159.67-70.86,42.75-28.59,81.28-63.73,111.87-105.17,25.1-34.01,45.45-73.47,52.44-115.5,1.55-9.32,2.51-18.73,2.66-28.18s-14.85-9.66-15,0h0Z"/></g><g id="k"><path class="r" d="M1469.18,403.82c17.46,4.91,36.73,8.95,54.91,7.83,5.7-.35,10.97-1.95,16.54-2.9,5.83-.99,11.91-.86,17.79-.39,13.28,1.06,26.67,4.72,38.93,9.87,9.41,3.95,19.43,9.08,26.06,17.06,.13,.15,.22,.22,.97,1.28,.5,.71,1,1.43,1.48,2.15,1.4,2.1,2.7,4.27,3.96,6.45,2.58,4.46,4.97,9.02,7.39,13.56,9.43,17.74,20.11,40.25,39.41,49.1,12.95,5.94,27.79,2.55,41.58,4.32,4.63,.6,9.3,1.56,13.74,3.01,1.07,.35,4.63,1.91,1.99,.67,.36,.17,.73,.33,1.08,.53,8.99,5.04,17.07-8.78,8.08-13.82-4.48-2.51-9.86-3.84-14.84-4.84-6.08-1.22-12.3-1.93-18.49-2.28-6.63-.38-14.6,.63-20.61-.22-7.94-1.11-14.98-7.87-20.34-14.82-6.47-8.39-11.48-17.93-16.45-27.25-4.57-8.57-8.88-17.47-14.64-25.33-6.49-8.84-15.35-15.09-25.07-20.04-23.21-11.81-53.18-19.98-79.14-13.88-19.46,4.57-41-.16-60.05-5.52-9.93-2.79-14.17,12.64-4.25,15.43h0Z"/><path class="r" d="M1473.65,554.16c6.2,5.47,13.65,7.2,21.3,9.62,9.02,2.86,17.48,8.93,24.63,14.97,3.61,3.05,7.07,6.29,10.22,9.82,2.85,3.2,5.26,6.39,9.07,8.55,6.67,3.8,14.46,2.65,20.81-1.19,5.77-3.49,10.32-8.6,14.92-13.43,.86-.91,1.74-1.79,2.63-2.67,.3-.3,.63-.58,.95-.86,1.2-1.07-1.2,.17,.09-.02,1.35-.19-.9,.34-.81,.34-5.65-.17-3.46-.46-2.87,.27,1.12,1.4,1.41,.7,2.77,2.5,3.69,4.87,6.28,14.15,8.92,20.55,4.19,10.18,8.59,19.95,16.6,27.75,14.91,14.55,39.63,20.16,54.33,2.13,2.73-3.35,3.27-8.04,0-11.31-2.82-2.82-8.57-3.37-11.31,0-10.51,12.89-26.58,4.91-35.32-6.07-6.08-7.64-9.19-17.51-12.71-26.49-2.66-6.79-5.25-14.22-10.6-19.43-4.66-4.53-11.45-7.55-17.46-3.81-4.56,2.84-7.95,7.49-11.7,11.24-2.02,2.02-3.74,3.72-5.74,5.01-.59,.38-3.32,1.81-2.61,1.49-1.34,.61-.96,.77-2.52,.38,1.78,.45-.92-.48-.05-.08,.81,.38-1.56-.98-1.39-.85-.82-.67-1.82-2.01-2.64-2.96-3.12-3.64-6.39-7.05-9.98-10.24-8.01-7.11-16.95-13.71-26.73-18.16-4.79-2.18-9.61-3.17-14.53-4.83-1.99-.67-3.85-1.58-5.63-2.7-.48-.3-.93-.64-1.41-.94-1.82-1.14,1.09,.94,.11,.08-7.7-6.79-19.05,4.49-11.31,11.31h0Z"/><path class="r" d="M1471.34,666.51c4.77,10.05,9.99,20.05,16.12,29.34,3.29,4.98,7.15,11.03,12.64,13.86,3.36,1.73,7.31,2,10.65,.02,1.84-1.09,2.56-2.33,3.85-3.96,.85-1.08-1.34,1.66-.37,.53,.59-.69-1.68,.75,.14-.05,.46-.2,.93-.49,1.37-.73,1.66-.89-1.68,.54,.23-.09,1.04-.34,2.06-.68,3.11-.96,3.83-.99,4.26-1.02,8.35-1.08,6.02-.09,11.18,.6,15.97,4.33-1.02-.8,2.38,2.59,1.67,1.67,1.02,1.31,1.64,2.59,1.96,3.43,1.61,4.32,.88,8.5,1.03,13.2,.26,8.52,3.12,17.86,11.97,20.93,7.29,2.53,15.21-.37,21.61-3.97,4.81-2.7,10.68-6.35,13.65-11.19,5.39-8.8-8.44-16.85-13.82-8.08,.82-1.35,1.23-1.17-.04-.16-.62,.49-1.19,1.07-1.8,1.58-.27,.23-1.81,1.38-.24,.21-.53,.39-1.05,.79-1.6,1.15-1.18,.8-2.36,1.58-3.59,2.3-3.1,1.8-3.09,1.91-6.08,2.73-.66,.18-1.32,.35-2,.45,1.98-.32-.05-.02-.44-.07-.86-.11-.7,.42,.3,.11-.39-.07-.77-.17-1.15-.3,.99,.46,1.1,.48,.31,.06,.73,.66-.01-.11-.16-.45-.91-2.14,.26,1.44-.37-1.12-.02-.06-.41-1.88-.41-1.84-.72-5.02,.2-10.08-.62-15.14-1.25-7.75-5.44-14.51-11.79-19.1-10.58-7.64-26.04-8.41-38.26-4.74-2.48,.74-5.01,1.71-7.23,3.03-1.09,.65-2.17,1.43-3.08,2.29-.28,.26-.54,.52-.8,.81-2.41,2.67-1.63,1.56-.84,1.2,1.17-.54,1.83-1.28,3.19-1.46,.29-.04,3.22-.1,1.86-.03l1.18,.47c-.27-.15-.52-.31-.77-.49,.54-.25,1.19,1.27-.03-.13-2.21-2.52-2.9-3.19-4.51-5.51-6.72-9.74-12.26-20.45-17.33-31.13-4.41-9.3-18.21-1.19-13.82,8.08h0Z"/><path class="r" d="M1483.35,848.54c.45-.2-2.45,.92-.08,.05,1.42-.52,2.83-1.06,4.28-1.52,2.1-.68,4.24-1.27,6.39-1.75,1.09-.24,2.19-.45,3.29-.65,.54-.09,1.71-.24,.54-.1,.65-.08,1.29-.14,1.94-.19,1.18-.08,2.35-.14,3.53-.12,.63,0,3.77,.27,2.53,.09,1.14,.17,2.25,.47,3.36,.77,1.38,.38,.38-.04,2.24,.99,1.13,.63,2.63,1.98,3.44,3.6,1.12,2.23,1.82,4.99,2.04,7.96,.76,10.21,16.77,10.29,16,0-.63-8.42-2.97-16.9-9.6-22.61-5.66-4.88-13.04-6.79-20.4-6.8-9.44-.02-19.01,2.62-27.59,6.46-3.94,1.77-4.88,7.5-2.87,10.95,2.37,4.06,6.99,4.64,10.95,2.87h0Z"/></g><g id="l"><path class="r" d="M1451.19,982.35c-18.81,29.26-43.84,55.91-70.77,77.83-12.62,10.27-26.21,19.34-40.63,26.86-7.99,4.17-.92,16.25,7.07,12.09,44.09-22.99,80.67-60.04,109.68-99.99,2.32-3.19,4.62-6.4,6.75-9.72,4.89-7.6-7.23-14.63-12.09-7.07h0Z"/><path class="r" d="M1472.74,266.54c.99-.83,2-1.64,3.01-2.45,1.06-.85,2.13-1.7,3.2-2.55,.7-.55,1.4-1.1,2.11-1.65,.27-.21,1.3-1,.22-.17,.5-.39,1-.77,1.51-1.16,9.43-7.19,19.07-14.1,28.93-20.68,26.03-17.37,53.96-33.59,84.11-42.56,14.66-4.36,30.57-7.27,45.78-4.13l-4.89-8.61c-.88,5.67-2.54,11.49-5.02,16.65-1.72,3.59-3.9,6.47-6.47,9.46-1.87,2.18-3.07,4.69-2.29,7.66,2.35,8.93,15.06,5.1,21.23,4.04,27.17-4.7,54.73-9.74,82.41-6.96,14.85,1.49,30.39,5.87,40.58,17.39l-1.09-8.48c-8.49,14.35-15.97,31.07-17.51,47.79-.94,10.28,2.1,21.21,11.75,26.39,3.82,2.05,6.52,2.69,10.6,4.97,1.58,.88,3.13,1.83,4.64,2.84,2.15,1.44,2.29,1.54,3.83,2.86,5.82,4.96,8.83,8.65,12.24,15.32,1.7,3.32,2.25,4.75,3.44,8.89,.5,1.73,.93,3.49,1.29,5.26,.18,.91,.34,1.82,.5,2.73,.29,1.7,.19,1.14,.28,2,2.12,19.01-1.98,37.42-7.85,55.51-8.32,25.65-20.66,49.91-34.12,73.21-17.83,30.88-38.13,60.32-59.47,88.86-24.42,32.66-51.05,63.5-73.5,97.63-20.7,31.46-38.85,64.51-55.58,98.23-29.97,60.39-54.6,123.54-87.45,182.48-3.67,6.57-7.46,13.08-11.38,19.5-4.71,7.71,7.39,14.75,12.09,7.07,34.56-56.56,58.98-118.73,87.4-178.43,15.82-33.25,32.67-66.04,51.74-97.56,10.11-16.71,20.84-33.06,32.28-48.89,12.03-16.65,25.2-32.39,37.84-48.57,41.14-52.67,81.48-108.65,106.76-170.96,13.19-32.51,25.97-76.74,4.98-108.93-4.3-6.6-9.74-12.1-16.07-16.75-3.02-2.22-6.24-4.15-9.59-5.83-3.63-1.82-8.09-3.03-10.18-5.15s-2.7-5.72-2.64-9.54c.08-4.89,1.24-9.65,2.65-14.35,2.62-8.73,6.4-17.08,10.69-25.11,.79-1.47,1.58-2.94,2.43-4.37,1.66-2.81,.97-6.15-1.09-8.48-19.5-22.05-53.55-23.51-80.79-21.76-14.24,.91-28.39,2.97-42.44,5.38-4.87,.84-9.74,1.74-14.61,2.57-1.78,.3-3.55,.6-5.34,.84,2.15-.29-1.66-.01-2.45,.14-1.53,.29,1.39,.31,2.08,.73,2.87,1.74,3.08,5.9,2.32,8.89,.13-.52-1.55,1.5-.53,.72,3.67-2.81,6.53-8.05,8.5-12.14,3.02-6.27,5.36-13.1,6.43-20,.55-3.54-.85-7.78-4.89-8.61-31.48-6.49-64.27,6.09-92.12,19.78-26.42,12.98-51.29,29.23-74.77,46.94-5.27,3.98-10.53,7.99-15.6,12.23-6.92,5.79,3.03,15.65,9.9,9.9h0Z"/></g><g id="m"><path class="r" d="M573.15,844.41c-15.06,17.6-34.25,31.15-55.18,40.92-6.62,3.09-13.5,5.75-20.57,7.62-1.9,.5-3.77,.96-5.73,1.1s-3.97,.16-5.88-.1c-.77-.1-1.56-.21-2.29-.48-1.52-.56,.27,.98-.88-.71-3.6-5.33-3.06-14.28-8.36-18.41-2.26-1.76-5.08-2.09-6.98-4.49-1.77-2.24-2.48-5.2-2.62-7.99-.26-5.25,1.18-11.73,4.94-15.61,2.43-2.51,6.67-5.13,9.84-7.36,8.67-6.1,17.96-11.29,26.25-17.92,9.09-7.26,17.17-15.24,27.21-21.29,6.6-3.99,.58-14.37-6.06-10.36-10.08,6.08-18.44,13.87-27.42,21.36-8.09,6.75-17.44,11.8-26.04,17.85-4.12,2.9-9.05,5.87-12.53,9.52-5.21,5.47-7.67,13.41-8.15,20.81-.51,7.72,1.88,15.91,7.8,21.15,1.67,1.48,3.64,2.85,5.75,3.65,3.06,1.17-.43-.71-.24-.79,.11-.04,.69,1.8,.64,1.59,1.1,4.47,2.98,9.36,5.11,13.41,7.53,14.37,29.26,7.15,40.92,2.65,26.14-10.09,50.69-26.29,68.97-47.65,5-5.84-3.45-14.36-8.49-8.49h0Z"/><path class="r" d="M512.71,961.11c7.15-5.99,12.97-13.87,18.76-21.11,9.66-12.1,18.95-24.5,28.06-37.02,12.46-17.13,23.48-34.05,31.55-53.66,1.55-3.77-1.68-8.21-5.24-9.23-4.29-1.23-7.69,1.51-9.23,5.24-7.51,18.26-18.46,34.16-30.03,50.07-8.51,11.7-17.16,23.31-26.2,34.6-5.64,7.04-11.31,14.68-18.27,20.5-7.41,6.2,3.25,16.77,10.61,10.61h0Z"/></g><g id="n"><path class="r" d="M494.46,818.7l-17.34-41.48-41.66-99.63-50.41-120.56-43.59-104.27c-7.07-16.92-14.13-33.84-21.22-50.75-.1-.24-.2-.49-.3-.73-1.87-4.48-5.96-7.69-11.07-6.29-4.23,1.16-8.17,6.56-6.29,11.07l17.34,41.48,41.66,99.63,50.41,120.56,43.59,104.27c7.07,16.92,14.13,33.84,21.22,50.75,.1,.24,.2,.49,.3,.73,1.87,4.48,5.96,7.69,11.07,6.29,4.23-1.16,8.17-6.56,6.29-11.07h0Z"/></g><g id="o"><g><path class="q" d="M305.79,408.98s-32.55,64.89-80.38,71.28c-40.05,5.34-92.91,106.25-121.52,110.35-36.94,5.29-97.03,74.97-97.03,74.97,0,0,80.3-15.53,111.48-2.61s125.28-24.9,165.42-15.08c34.67,8.48,123.6-6.72,123.6-6.72l-96.08-231.64"/><path class="x" d="M299.75,405.45c-9.82,19.51-24.14,38.14-41.11,51.87-6.09,4.93-12.95,9.31-20.23,12.25-6.7,2.71-13.81,3.02-20.57,5.29-12.94,4.34-23.78,13.84-33.32,23.28-22.65,22.4-40.31,49.25-62.67,71.89-4.03,4.08-7.99,7.85-12.29,10.63-.93,.6-1.88,1.14-2.85,1.68-.36,.2-.74,.38-1.11,.55-1.78,.83,1.3-.39-.49,.19-2.34,.76-4.79,.99-7.17,1.59-14.34,3.61-27.3,12.57-38.86,21.44-20.83,15.98-40.02,34.65-57.18,54.52-4.67,5.4-.17,13.04,6.81,11.7,21.96-4.23,44.5-6.9,66.86-7.42,13.75-.32,27.88-.04,40.9,4.82,11.34,4.23,24.24,3.26,36.04,1.87,32.91-3.87,64.85-13.61,97.78-17.27,7.02-.78,14.12-1.29,21.19-1.01,5.69,.23,10.46,1.55,16.19,2.45,14.83,2.33,30.03,1.93,44.97,1.07,25.62-1.47,51.29-4.6,76.59-8.92,3.42-.58,6.24-5.36,4.89-8.61l-32.43-78.19-51.73-124.71-11.92-28.74c-1.46-3.52-4.63-5.94-8.61-4.89-3.31,.87-6.34,5.12-4.89,8.61l32.43,78.19,51.73,124.71,11.92,28.74,4.89-8.61c-21.09,3.6-42.42,6.18-63.74,7.8-15.16,1.15-30.55,1.96-45.72,.57-5.77-.53-11.4-2.1-17.24-2.85-6.51-.84-13.06-.84-19.6-.42-33.26,2.13-65.57,11.79-98.4,16.91-11.76,1.83-25.77,3.85-36.64,1.08-5.7-1.45-10.95-3.76-16.82-4.75-7.53-1.26-15.16-1.8-22.79-1.91-26.51-.38-53.52,2.96-79.55,7.97l6.81,11.7c14.6-16.91,30.74-32.85,47.92-47.13,11.22-9.33,23.77-19.11,37.72-23.94,5.08-1.76,10.35-2.12,15.23-4.47s9.23-5.89,13.25-9.48c10.81-9.64,19.99-21.11,29.17-32.25,10.57-12.82,20.96-25.82,32.3-37.97,9.13-9.78,19.14-20.13,31.45-25.85,4.79-2.22,11.98-2.73,17.68-4.42,8.14-2.41,15.9-6.27,22.93-11.01,22.05-14.86,40.42-37.78,52.36-61.49,4.04-8.03-8.03-15.12-12.09-7.07h0Z"/></g><path class="s" d="M202.47,545.27c-13.78-4.82-31.57,.82-40.14,12.5-9.61,13.1-4.18,33.04,12.97,35.75,8.32,1.32,16.24-2.3,24.48-1.63,5.88,.48,11.81,4.84,12.85,10.9s-3.17,12.11-8.67,14.25c-6.34,2.47-13.25-.11-17.43-5.13-5.77-6.93-15.62,3.02-9.9,9.9,10.01,12.04,29.21,13.43,40.86,3.03s12.23-29.38-.01-39.85c-6.14-5.25-13.75-7.64-21.79-7.01-6.11,.47-17.67,5.04-22.51-.49s.44-12.89,5.38-16.1c5.64-3.66,13.86-4.84,20.19-2.63,8.52,2.98,12.18-10.54,3.72-13.5h0Z"/><path class="s" d="M217.71,535.91c7.69,25.59,16.94,50.64,27.56,75.16,1.51,3.5,6.58,4.22,9.58,2.51,3.61-2.05,4.01-6.13,2.51-9.58-10.13-23.4-18.81-47.4-26.15-71.82-2.59-8.61-16.1-4.94-13.5,3.72h0Z"/><path class="s" d="M227.15,539.95l30.29-11.06c8.4-3.06,4.77-16.6-3.72-13.5l-30.29,11.06c-8.4,3.06-4.77,16.6,3.72,13.5h0Z"/><path class="s" d="M236.14,571.07l30.51-6.47c7.58-1.61,6.03-14.78-1.86-13.75l-2.35,.31c-3.78,.49-6.96,2.87-7,7-.04,3.41,3.25,7.49,7,7l2.35-.31-1.86-13.75-30.51,6.47c-8.81,1.87-5.08,15.37,3.72,13.5h0Z"/><path class="s" d="M272.59,512.4c1.98,17.73,6.72,34.79,14.62,50.82,6.82,13.82,18.87,32.54,37.18,27.22,17.86-5.18,18.53-26.83,16.46-41.81-2.34-16.9-8.45-33.12-17.82-47.38-2.59-3.94-9.82-5.14-12.09,0l-1.12,2.54c-3.61,8.17,8.45,15.3,12.09,7.07l1.12-2.54h-12.09c7.18,10.92,12.25,22.85,14.97,35.64,1.76,8.31,6.18,29.21-5.24,32.98-11.59,3.83-20.27-18.01-23.62-25.57-5.45-12.29-8.97-25.61-10.46-38.97-.42-3.79-2.92-6.96-7-7-3.46-.04-7.42,3.25-7,7h0Z"/></g></svg>